<svg width="100" height="100" viewBox="0 0 100 100" fill="none" xmlns="http://www.w3.org/2000/svg">
<rect width="100" height="100" fill="#00FF29"/>
<path d="M35.7407 56.133C35.4367 56.133 35.1834 56.0317 34.9807 55.829C34.7907 55.6263 34.6957 55.3793 34.6957 55.088C34.6957 54.7967 34.7907 54.5497 34.9807 54.347C35.1834 54.1443 35.4367 54.043 35.7407 54.043C36.0447 54.043 36.2917 54.1443 36.4817 54.347C36.6844 54.5497 36.7857 54.7967 36.7857 55.088C36.7857 55.3793 36.6844 55.6263 36.4817 55.829C36.2917 56.0317 36.0447 56.133 35.7407 56.133Z" fill="black"/>
<path d="M42.3996 56.133C41.2343 56.133 40.3666 55.8797 39.7966 55.373C39.2266 54.8537 38.891 54.1443 38.7896 53.245H40.0816C40.1703 53.8277 40.3793 54.2583 40.7086 54.537C41.0506 54.8157 41.6143 54.955 42.3996 54.955C43.2736 54.955 43.8753 54.822 44.2046 54.556C44.5466 54.29 44.7176 53.9163 44.7176 53.435C44.7176 53.017 44.572 52.7003 44.2806 52.485C44.002 52.257 43.6473 52.0797 43.2166 51.953C42.7986 51.8137 42.3426 51.6933 41.8486 51.592C41.3546 51.4907 40.8923 51.345 40.4616 51.155C40.0436 50.965 39.689 50.7053 39.3976 50.376C39.119 50.034 38.9796 49.5653 38.9796 48.97C38.9796 48.2227 39.2583 47.602 39.8156 47.108C40.3856 46.614 41.247 46.367 42.3996 46.367C43.4763 46.367 44.287 46.6203 44.8316 47.127C45.389 47.621 45.7183 48.267 45.8196 49.065H44.5276C44.4263 48.5837 44.2173 48.21 43.9006 47.944C43.5966 47.678 43.0963 47.545 42.3996 47.545C41.6143 47.545 41.0633 47.678 40.7466 47.944C40.43 48.1973 40.2716 48.5393 40.2716 48.97C40.2716 49.35 40.411 49.6413 40.6896 49.844C40.981 50.034 41.3356 50.1923 41.7536 50.319C42.1843 50.433 42.6466 50.5407 43.1406 50.642C43.6346 50.7433 44.0906 50.8953 44.5086 51.098C44.9393 51.3007 45.294 51.5857 45.5726 51.953C45.864 52.3077 46.0096 52.8017 46.0096 53.435C46.0096 54.2203 45.7183 54.8663 45.1356 55.373C44.553 55.8797 43.641 56.133 42.3996 56.133Z" fill="black"/>
<path d="M47.163 46.5H48.569L51.647 54.575L54.573 46.5H55.903L52.388 56H50.868L47.163 46.5Z" fill="black"/>
<path d="M60.7714 55.753C60.2141 55.753 59.7074 55.658 59.2514 55.468C58.7954 55.278 58.4028 55.0057 58.0734 54.651C57.7568 54.2837 57.5034 53.834 57.3134 53.302C57.1361 52.77 57.0474 52.162 57.0474 51.478V50.642C57.0474 49.958 57.1361 49.3563 57.3134 48.837C57.5034 48.305 57.7631 47.8553 58.0924 47.488C58.4218 47.1207 58.8144 46.842 59.2704 46.652C59.7264 46.462 60.2268 46.367 60.7714 46.367C61.4681 46.367 62.0824 46.5063 62.6144 46.785C63.1591 47.0637 63.5898 47.488 63.9064 48.058L64.0584 46.5H65.0274V56C65.0274 57.2667 64.6918 58.2357 64.0204 58.907C63.3618 59.591 62.4181 59.933 61.1894 59.933C59.9988 59.933 59.1121 59.6733 58.5294 59.154C57.9594 58.6347 57.6238 57.9317 57.5224 57.045H58.7764C58.8778 57.5897 59.1058 58.0077 59.4604 58.299C59.8151 58.603 60.3914 58.755 61.1894 58.755C62.0634 58.755 62.7094 58.5333 63.1274 58.09C63.5581 57.6467 63.7734 56.95 63.7734 56V54.271C63.4441 54.765 63.0261 55.1387 62.5194 55.392C62.0128 55.6327 61.4301 55.753 60.7714 55.753ZM61.0564 54.575C61.4491 54.575 61.8038 54.5117 62.1204 54.385C62.4498 54.2457 62.7348 54.0493 62.9754 53.796C63.2161 53.53 63.4061 53.2197 63.5454 52.865C63.6848 52.4977 63.7608 52.086 63.7734 51.63V50.509C63.7481 49.559 63.4821 48.8307 62.9754 48.324C62.4814 47.8047 61.8418 47.545 61.0564 47.545C60.2331 47.545 59.5744 47.811 59.0804 48.343C58.5864 48.8623 58.3394 49.6287 58.3394 50.642V51.478C58.3394 52.4787 58.5864 53.245 59.0804 53.777C59.5871 54.309 60.2458 54.575 61.0564 54.575Z" fill="black"/>
</svg>
